<?xml version="1.0" encoding="UTF-8" standalone="no"?>
<!-- Created with Inkscape (http://www.inkscape.org/) -->

<svg
   width="512"
   height="512"
   viewBox="0 0 512 512"
   version="1.1"
   id="svg1"
   xml:space="preserve"
   inkscape:version="1.3.2 (091e20e, 2023-11-25, custom)"
   sodipodi:docname="file manager.svg"
   xmlns:inkscape="http://www.inkscape.org/namespaces/inkscape"
   xmlns:sodipodi="http://sodipodi.sourceforge.net/DTD/sodipodi-0.dtd"
   xmlns="http://www.w3.org/2000/svg"
   xmlns:svg="http://www.w3.org/2000/svg"><sodipodi:namedview
     id="namedview1"
     pagecolor="#505050"
     bordercolor="#eeeeee"
     borderopacity="1"
     inkscape:showpageshadow="0"
     inkscape:pageopacity="0"
     inkscape:pagecheckerboard="0"
     inkscape:deskcolor="#505050"
     inkscape:document-units="px"
     inkscape:zoom="1.1228082"
     inkscape:cx="44.976514"
     inkscape:cy="248.03879"
     inkscape:window-width="1920"
     inkscape:window-height="1009"
     inkscape:window-x="-8"
     inkscape:window-y="-8"
     inkscape:window-maximized="1"
     inkscape:current-layer="layer1" /><defs
     id="defs1" /><g
     inkscape:label="Layer 1"
     inkscape:groupmode="layer"
     id="layer1"><rect
       style="fill:#3b683e;fill-rule:evenodd;fill-opacity:1"
       id="rect1"
       width="512"
       height="512"
       x="0"
       y="0" /><rect
       style="fill:#95b990;fill-rule:evenodd;fill-opacity:1"
       id="rect3"
       width="191.44896"
       height="89.426811"
       x="119.02583"
       y="119.6556"
       ry="24.492161" /><rect
       style="fill:#95b990;fill-rule:evenodd;fill-opacity:1"
       id="rect4"
       width="191.44896"
       height="89.426811"
       x="200.89545"
       y="150.51414"
       ry="20.71356" /><path
       id="rect2"
       style="fill:#aec9aa;fill-rule:evenodd;stroke-width:0.94885;fill-opacity:1"
       d="m 122.87107,175.89844 c -13.46564,0 -23.540267,10.92354 -22.5885,24.49219 l 11.52723,164.32031 c 0.58319,8.31405 5.17559,15.62158 11.73605,20.04492 3.7541,2.7956 8.449,4.44727 13.6637,4.44727 h 0.6245 234.21432 0.62451 c 5.21469,0 9.90959,-1.65167 13.66369,-4.44727 6.56046,-4.42334 11.15286,-11.73087 11.73605,-20.04492 l 11.52723,-164.32031 c 0.95176,-13.56865 -9.12286,-24.49219 -22.58851,-24.49219 H 357.7099 152.17252 Z" /><rect
       style="fill:#95b990;fill-rule:evenodd;stroke-width:0.828515;fill-opacity:1"
       id="rect5"
       width="28.875479"
       height="47.871162"
       x="154.67415"
       y="170.56084"
       ry="0.89668936"
       transform="matrix(1,0,0.71185769,0.70232374,0,0)"
       inkscape:transform-center-y="-0.89062117"
       inkscape:transform-center-x="0.033608582" /></g></svg>
