<?xml version="1.0" encoding="UTF-8" standalone="no"?>
<!-- Created with Inkscape (http://www.inkscape.org/) -->

<svg
   width="512"
   height="512"
   viewBox="0 0 512 512"
   version="1.1"
   id="svg1"
   sodipodi:docname="kiwibrowser.svg"
   inkscape:version="1.3.2 (091e20e, 2023-11-25, custom)"
   xml:space="preserve"
   xmlns:inkscape="http://www.inkscape.org/namespaces/inkscape"
   xmlns:sodipodi="http://sodipodi.sourceforge.net/DTD/sodipodi-0.dtd"
   xmlns="http://www.w3.org/2000/svg"
   xmlns:svg="http://www.w3.org/2000/svg"><sodipodi:namedview
     id="namedview1"
     pagecolor="#505050"
     bordercolor="#eeeeee"
     borderopacity="1"
     inkscape:showpageshadow="0"
     inkscape:pageopacity="0"
     inkscape:pagecheckerboard="0"
     inkscape:deskcolor="#505050"
     inkscape:document-units="px"
     inkscape:zoom="0.56140411"
     inkscape:cx="-236.01537"
     inkscape:cy="95.296772"
     inkscape:window-width="1920"
     inkscape:window-height="1009"
     inkscape:window-x="-8"
     inkscape:window-y="-8"
     inkscape:window-maximized="1"
     inkscape:current-layer="layer1" /><defs
     id="defs1"><style
       id="style1">.cls-1{fill:#fff;}</style></defs><g
     inkscape:label="Layer 1"
     inkscape:groupmode="layer"
     id="layer1"><rect
       style="fill:#3b683e;fill-rule:evenodd;fill-opacity:1"
       id="rect1"
       width="512"
       height="512"
       x="0"
       y="0" /><g
       id="g7"
       transform="matrix(6.7537724,0,0,6.7537724,80.054555,102.00033)"
       style="fill:#aec9aa;fill-opacity:1"><path
         class="cls-1"
         d="M 17.78,21.69 A 1.31,1.31 0 1 0 19.09,23 1.31,1.31 0 0 0 17.78,21.69 Z"
         id="path1"
         style="fill:#aec9aa;fill-opacity:1" /><path
         class="cls-1"
         d="m 46,24 a 22,22 0 1 0 -37.88,15.22 15.6,15.6 0 0 1 0.7,-3 2.71,2.71 0 0 0 -0.53,-2.78 10.17,10.17 0 0 1 13.38,-15.22 1.91,1.91 0 0 0 2.09,0.1 31,31 0 0 1 16.1,-4.15 0.36,0.36 0 0 1 0.06,0.71 30.88,30.88 0 0 0 -14,7.78 1.43,1.43 0 0 0 -0.38,1.34 v 0 A 2.84,2.84 0 0 0 27.6,26.08 15.64,15.64 0 0 1 39.21,39.88 21.91,21.91 0 0 0 46,24 Z"
         id="path2"
         style="fill:#aec9aa;fill-opacity:1" /></g></g></svg>
