<?xml version="1.0" encoding="UTF-8" standalone="no"?>
<svg
   version="1.1"
   width="512"
   height="512"
   viewBox="0 0 512 512"
   id="svg1"
   xml:space="preserve"
   sodipodi:docname="tarraria.svg"
   inkscape:version="1.3.2 (091e20e, 2023-11-25, custom)"
   xmlns:inkscape="http://www.inkscape.org/namespaces/inkscape"
   xmlns:sodipodi="http://sodipodi.sourceforge.net/DTD/sodipodi-0.dtd"
   xmlns="http://www.w3.org/2000/svg"
   xmlns:svg="http://www.w3.org/2000/svg"><sodipodi:namedview
     id="namedview1"
     pagecolor="#505050"
     bordercolor="#eeeeee"
     borderopacity="1"
     inkscape:showpageshadow="0"
     inkscape:pageopacity="0"
     inkscape:pagecheckerboard="0"
     inkscape:deskcolor="#505050"
     inkscape:zoom="0.79394529"
     inkscape:cx="372.19189"
     inkscape:cy="412.49694"
     inkscape:window-width="1920"
     inkscape:window-height="1009"
     inkscape:window-x="-8"
     inkscape:window-y="-8"
     inkscape:window-maximized="1"
     inkscape:current-layer="svg1" /><defs
     id="defs1"><linearGradient
       x1="488.57176"
       y1="221.63219"
       x2="430.18948"
       y2="221.63219"
       gradientUnits="userSpaceOnUse"
       id="color-1"><stop
         offset="0"
         stop-color="#af9055"
         id="stop1" /><stop
         offset="1"
         stop-color="#af9055"
         stop-opacity="0"
         id="stop2" /></linearGradient><linearGradient
       x1="241.00154"
       y1="-9.18919"
       x2="241.00154"
       y2="188.33728"
       gradientUnits="userSpaceOnUse"
       id="color-2"><stop
         offset="0"
         stop-color="#66c6ff"
         id="stop3" /><stop
         offset="1"
         stop-color="#66c6ff"
         stop-opacity="0"
         id="stop4" /></linearGradient><radialGradient
       cx="164.80684"
       cy="218.1335"
       r="594.9617"
       gradientUnits="userSpaceOnUse"
       id="color-3"><stop
         offset="0"
         stop-color="#756139"
         stop-opacity="0"
         id="stop5" /><stop
         offset="1"
         stop-color="#756139"
         id="stop6" /></radialGradient></defs><rect
     style="fill:#3b683e;fill-rule:evenodd;stroke-width:0.989464;fill-opacity:1"
     id="rect10"
     width="512"
     height="512"
     x="0"
     y="0" /><g
     id="g1"
     transform="matrix(7.896925,0,0,7.896925,68.048222,60.49102)"><path
       fill="#6d4c41"
       d="m 26,16 h -4 v 23 c 0,1.658 -1.343,3 -3,3 h -1 v 2 h 12 v -2 h -1 c -1.657,0 -3,-1.342 -3,-3 z"
       id="path1" /><rect
       width="10.062"
       height="2"
       x="22.040001"
       y="35.853001"
       fill="#6d4c41"
       transform="rotate(-38.639,27.071,36.853)"
       id="rect1" /><rect
       width="2"
       height="11.112"
       x="19.929001"
       y="28.511999"
       fill="#6d4c41"
       transform="rotate(-45.001,20.927,34.067)"
       id="rect2" /><path
       fill="#27ae60"
       d="M 13.7,25.392 11.301,26.812 11,27.996 12.575,28.808 12.201,29.334 11,29.991 v 1.51 l 1.651,-0.131 0.751,1.051 -0.076,1.051 0.599,0.196 0.374,0.328 0.9,-0.59 c 0,0 1.575,0.459 1.426,0.263 -0.149,-0.196 -0.301,-0.985 -0.301,-0.985 l 0.9,0.065 0.301,-0.722 1.201,-0.065 -0.374,-0.657 1.201,-1.84 L 18.954,28.349 18.9,28.132 20,27.758 V 26.51 l -0.976,-0.263 c 0,0 0.149,-0.657 -0.076,-0.657 -0.225,0 -1.426,0 -1.426,0 L 17.223,25 h -0.751 l -0.374,0.657 h -1.125 z"
       id="path2" /><path
       fill="#27ae60"
       d="m 34.3,29.392 2.399,1.604 0.301,1.183 -1.575,0.628 0.374,0.526 1.201,0.658 v 1.51 l -1.651,-0.131 -0.751,1.051 0.076,1.051 -0.599,0.196 -0.374,0.328 -0.9,-0.59 c 0,0 -1.575,0.459 -1.426,0.263 0.149,-0.196 0.301,-0.985 0.301,-0.985 l -0.9,0.065 -0.301,-0.722 -1.201,-0.065 0.374,-0.657 -1.201,-1.84 0.599,-1.116 0.052,-0.218 L 28,31.758 V 30.51 l 0.976,-0.263 c 0,0 -0.149,-0.657 0.076,-0.657 0.225,0 1.426,0 1.426,0 L 30.777,29 h 0.751 l 0.374,0.657 h 1.125 z"
       id="path3" /><path
       fill="#27ae60"
       d="M 22.287,4.114 22.054,5.085 H 21.183 L 21.125,5.826 19.675,5.655 19.559,5.028 17.643,5.199 17.41,5.883 16.365,5.712 15.785,6.683 15,7 l 0.032,1.564 0.871,0.228 -0.174,1.312 -0.696,-0.228 -0.116,1.198 h -0.929 l -0.754,1.084 v 0.914 l 0.987,0.741 0.289,0.57 -0.231,0.456 -1.279,-0.056 0.058,3.081 0.754,0.114 v 0.513 l 0.58,0.285 0.058,0.857 1.161,0.8 0.233,-0.741 0.638,0.627 0.522,0.399 -0.116,1.255 1.103,1.027 0.291,-0.8 0.522,-0.171 0.291,-0.57 0.522,0.171 0.116,0.627 L 20.312,23 H 24 l 1.188,-2.055 1.103,0.285 0.291,0.684 0.871,-0.971 1.394,0.228 0.522,0.456 1.045,-0.171 c 0.291,-0.513 0.291,-0.513 0.291,-0.513 v 0 L 31.202,19.886 32.362,20 C 32.536,19.43 33,19.316 33,19.316 l -0.148,-0.77 H 33.49 L 33.304,17.057 34,17 v -4 l 1,-0.842 -0.116,-0.971 -0.696,0.114 V 10.674 H 32.91 L 32.794,9.533 32.098,9.476 V 8.735 L 31.286,8.792 31.344,8.165 30.822,7.88 30.996,6.796 29.602,6.169 28.79,5.084 28.268,5.711 27.456,5.939 27.049,5.139 26.235,5.027 25.77,4.113 24.667,4.056 24.55,4.798 23.796,4.627 23.274,4 Z"
       id="path4" /></g></svg>
